<?xml version="1.0" standalone="no"?>
<!DOCTYPE svg PUBLIC "-//W3C//DTD SVG 20010904//EN"
 "http://www.w3.org/TR/2001/REC-SVG-20010904/DTD/svg10.dtd">
<svg version="1.0" xmlns="http://www.w3.org/2000/svg"
 width="244.000000pt" height="284.000000pt" viewBox="0 0 244.000000 284.000000"
 preserveAspectRatio="xMidYMid meet">

<g transform="translate(0.000000,284.000000) scale(0.100000,-0.100000)"
fill="#000000" stroke="none">
<path d="M1047 1910 c-210 -53 -357 -282 -318 -495 39 -213 219 -365 431 -365
62 0 163 23 196 45 20 13 29 8 127 -68 58 -45 182 -145 277 -222 94 -77 177
-141 184 -143 13 -3 136 143 135 162 0 8 -427 359 -521 428 -17 12 -17 16 6
73 85 213 -9 452 -217 555 -60 29 -78 33 -165 36 -53 2 -114 -1 -135 -6z m184
-202 c50 -14 114 -69 139 -119 24 -45 27 -143 7 -192 -65 -155 -273 -193 -389
-70 -58 61 -76 167 -43 251 20 48 93 118 139 131 44 13 103 13 147 -1z"/>
</g>
</svg>
